<!DOCTYPE svg PUBLIC "-//W3C//DTD SVG 20010904//EN" "http://www.w3.org/TR/2001/REC-SVG-20010904/DTD/svg10.dtd">
<svg version="1.0" xmlns="http://www.w3.org/2000/svg" width="445px" height="501px" viewBox="0 0 4450 5010" preserveAspectRatio="xMidYMid meet">
<g id="layer101" fill="#1d4983" stroke="none">
 <path d="M2085 4927 c-72 -46 -370 -233 -663 -416 l-532 -334 0 -137 c0 -76 -3 -152 -6 -170 -6 -29 -32 -49 -255 -198 l-249 -165 0 -565 0 -564 -190 -370 c-105 -203 -190 -371 -190 -373 0 -5 29 -18 485 -215 512 -220 468 -198 461 -235 -3 -16 -17 -66 -30 -110 -13 -44 -22 -83 -20 -86 2 -4 51 -26 110 -49 58 -24 108 -49 111 -56 3 -8 -18 -86 -46 -175 -28 -88 -51 -168 -51 -178 0 -15 119 -70 576 -267 316 -137 586 -253 600 -259 16 -6 37 -5 62 2 36 11 1091 466 1151 498 17 8 31 17 31 19 0 2 -22 79 -50 171 -27 92 -50 175 -50 185 0 12 29 28 110 60 128 50 124 41 81 175 -23 69 -27 93 -18 101 11 11 492 220 805 352 97 41 132 60 132 73 0 9 -48 109 -106 221 -58 111 -142 274 -185 360 l-79 158 0 564 0 564 -259 168 -260 169 -3 169 -3 170 -658 413 c-362 227 -664 413 -670 413 -7 0 -71 -38 -142 -83z m155 -827 c0 -5 -7 -10 -15 -10 -8 0 -15 5 -15 10 0 6 7 10 15 10 8 0 15 -4 15 -10z"/>
 </g>
<g id="layer102" fill="#5476a0" stroke="none">
 <path d="M2242 4996 c16 -8 34 -18 40 -21 7 -4 2 3 -12 14 -14 11 -32 21 -40 21 -8 0 -3 -7 12 -14z"/>
 <path d="M2083 4927 c-61 -40 -115 -76 -120 -81 -11 -12 0 -6 132 77 120 75 123 77 109 76 -5 0 -59 -33 -121 -72z"/>
 <path d="M1939 4682 c-156 -98 -427 -268 -601 -378 l-318 -199 -2 -165 -3 -165 -252 -169 -253 -169 0 -545 0 -545 -166 -324 c-93 -181 -162 -329 -158 -333 5 -5 216 -97 469 -205 253 -108 461 -198 462 -199 2 -1 -13 -49 -32 -107 -20 -57 -33 -109 -31 -114 2 -6 37 -24 77 -40 41 -15 93 -36 116 -46 l41 -18 -54 -168 c-30 -92 -57 -177 -60 -188 -5 -19 45 -42 526 -249 l530 -229 528 228 c290 124 528 228 530 230 2 2 -22 83 -53 182 -32 98 -58 182 -59 187 0 5 50 30 113 55 63 26 116 51 118 57 2 5 -13 56 -32 114 -19 57 -34 105 -32 106 1 1 209 91 462 199 253 108 464 200 469 205 4 4 -65 151 -158 333 l-166 325 0 544 0 545 -252 169 -253 169 -3 165 -3 165 -137 86 c-834 525 -1065 669 -1071 669 -4 0 -136 -80 -292 -178z m558 -149 c146 -93 388 -244 536 -338 l269 -170 -1 -156 c-1 -121 1 -160 12 -170 7 -8 122 -86 255 -174 l242 -160 0 -525 0 -525 140 -274 c77 -151 137 -278 133 -282 -5 -4 -55 -28 -113 -52 -388 -165 -796 -339 -799 -342 -2 -2 13 -52 33 -111 20 -60 33 -111 28 -114 -4 -4 -58 -26 -119 -51 -100 -38 -112 -46 -107 -64 3 -11 30 -96 60 -189 29 -93 53 -171 51 -172 -1 -2 -137 -61 -302 -132 -165 -71 -364 -157 -442 -191 l-142 -62 -103 44 c-343 148 -783 339 -785 341 -1 1 25 87 58 190 33 104 58 190 57 191 -2 1 -52 22 -113 45 -60 24 -113 46 -117 50 -5 3 8 54 28 114 20 59 35 109 33 111 -5 4 -188 82 -594 255 -170 72 -314 135 -319 140 -4 4 7 37 27 72 19 34 82 158 141 275 l106 211 0 524 1 523 241 160 c133 88 247 166 255 174 11 10 14 48 12 170 l-1 156 108 69 c60 38 240 151 399 251 160 100 351 221 425 268 74 47 136 86 138 86 1 1 122 -74 269 -166z"/>
 <path d="M2156 4349 c-33 -26 -35 -59 -3 -59 12 0 28 9 35 20 22 35 98 22 90 -16 -2 -12 -20 -22 -58 -32 -30 -7 -63 -21 -72 -29 -43 -39 -1 -123 62 -123 16 0 30 -5 30 -11 0 -7 -9 -9 -22 -6 -25 7 -73 -16 -82 -38 -3 -9 -6 -61 -6 -116 0 -99 0 -99 25 -99 25 0 25 1 25 86 0 101 9 124 50 124 41 0 50 -23 50 -124 0 -85 0 -86 25 -86 25 0 25 0 25 95 0 107 -10 139 -52 156 l-29 12 30 18 c26 16 51 47 51 63 0 15 -49 4 -65 -14 -20 -22 -55 -26 -73 -8 -22 22 -12 37 31 49 78 21 96 31 105 57 11 31 0 69 -26 88 -28 22 -115 17 -146 -7z"/>
 <path d="M2110 3695 l0 -125 38 0 39 0 18 85 c10 47 21 85 25 85 4 0 16 -37 26 -82 l19 -83 38 -3 37 -3 0 125 0 126 -25 0 c-25 0 -25 -1 -26 -82 l-1 -83 -21 83 c-19 77 -23 82 -47 82 -24 0 -28 -5 -47 -82 l-21 -83 -1 83 c-1 81 -1 82 -26 82 l-25 0 0 -125z"/>
 <path d="M1589 3655 l41 -45 0 -1133 0 -1134 -41 -52 -41 -51 206 0 c113 0 206 3 206 6 0 3 -16 25 -35 48 l-35 43 0 447 0 446 324 0 c178 0 331 3 340 6 14 6 16 -38 16 -446 l0 -453 -36 -44 c-20 -24 -34 -46 -32 -49 3 -2 96 -3 206 -2 l202 3 -40 45 -39 45 -1 1138 0 1137 41 45 42 45 -207 0 c-113 0 -206 -3 -206 -6 0 -4 16 -24 35 -45 l35 -39 0 -626 c0 -567 -1 -626 -16 -620 -9 3 -162 6 -340 6 l-324 0 0 623 0 623 35 34 c19 19 35 38 35 42 0 4 -93 8 -206 8 l-207 0 42 -45z"/>
 <path d="M2201 3438 l1 -131 -26 -14 c-76 -40 -73 -213 3 -238 24 -7 28 -25 7 -25 -8 0 -24 -12 -35 -26 -18 -23 -21 -41 -21 -125 0 -99 0 -99 25 -99 25 0 25 1 25 86 0 101 9 124 50 124 41 0 50 -23 50 -124 0 -85 0 -86 25 -86 25 0 25 0 25 99 0 84 -3 102 -21 125 -11 14 -27 26 -35 26 -8 0 -14 5 -14 10 0 6 6 10 14 10 15 0 66 55 66 71 0 18 -55 9 -68 -11 -12 -20 -47 -26 -68 -12 -18 11 -34 49 -34 77 0 75 70 114 106 59 11 -16 24 -24 38 -22 39 6 9 70 -42 89 -12 5 -22 12 -21 16 1 5 1 63 0 131 l-1 122 -25 0 -26 0 2 -132z"/>
 <path d="M820 2898 l0 -122 58 56 c31 31 72 64 91 73 46 23 142 31 181 15 45 -19 80 -65 80 -106 0 -66 -28 -99 -207 -243 -109 -87 -176 -168 -194 -235 -18 -65 -6 -160 25 -207 30 -44 100 -94 156 -109 50 -14 127 -12 190 5 74 21 180 21 219 0 l31 -16 0 117 0 117 -50 -52 c-64 -66 -125 -95 -207 -96 -72 0 -107 20 -136 78 -36 72 8 141 169 264 174 132 229 212 229 328 -1 78 -13 110 -67 164 -77 79 -192 103 -324 67 -85 -22 -160 -21 -207 4 l-37 20 0 -122z"/>
 <path d="M2996 3013 c-7 -7 -8 -233 -1 -233 2 0 24 21 47 46 23 25 62 57 87 72 39 23 57 27 124 27 78 0 79 0 114 -39 33 -35 35 -42 31 -88 -6 -58 -33 -90 -173 -202 -185 -149 -229 -214 -230 -336 0 -64 4 -82 27 -121 64 -108 202 -154 348 -114 75 21 180 21 218 1 17 -9 33 -16 37 -16 3 0 5 52 5 115 0 63 -3 115 -6 115 -4 0 -23 -19 -44 -43 -46 -52 -119 -93 -183 -102 -94 -14 -177 42 -177 120 0 68 36 110 211 247 148 117 198 193 199 303 0 99 -41 162 -143 216 -51 27 -71 32 -126 32 -36 0 -94 -8 -127 -17 -84 -22 -161 -21 -201 3 -17 11 -34 17 -37 14z"/>
 <path d="M2130 2635 l0 -125 71 0 c39 0 79 5 90 10 67 37 63 197 -7 229 -14 6 -54 11 -89 11 l-65 0 0 -125z m131 66 c20 -16 24 -29 24 -71 0 -60 -18 -80 -72 -80 l-33 0 0 85 0 85 29 0 c16 0 39 -9 52 -19z"/>
 <path d="M2196 1993 c-6 -20 -24 -287 -30 -458 -17 -426 -19 -441 -56 -460 -37 -19 -47 -50 -24 -76 15 -17 31 -19 144 -19 85 0 130 4 138 12 21 21 13 51 -23 84 -27 24 -35 40 -35 66 0 144 -44 841 -54 857 -11 18 -54 13 -60 -6z"/>
 <path d="M2145 930 c-15 -24 17 -40 80 -40 43 0 66 5 75 15 21 25 1 35 -75 35 -41 0 -77 -5 -80 -10z"/>
 <path d="M2110 820 c-29 -29 -25 -49 21 -121 23 -35 49 -80 58 -99 l16 -35 3 35 c2 19 -1 70 -8 112 -7 43 -9 89 -6 103 6 23 4 25 -29 25 -22 0 -43 -8 -55 -20z"/>
 <path d="M2261 796 c12 -28 20 -71 21 -115 3 -78 9 -79 47 -6 43 81 13 165 -58 165 l-30 0 20 -44z"/>
 <path d="M1913 4819 c-35 -22 -46 -37 -15 -20 22 13 58 40 52 41 -3 0 -20 -10 -37 -21z"/>
 <path d="M1745 4714 c-66 -42 -124 -81 -130 -87 -5 -6 1 -4 15 5 171 104 254 159 238 158 -2 0 -57 -35 -123 -76z"/>
 <path d="M1563 4599 c-35 -22 -46 -37 -15 -20 22 13 58 40 52 41 -3 0 -20 -10 -37 -21z"/>
 <path d="M1448 4527 c-61 -39 -106 -73 -68 -52 41 23 140 87 140 91 0 6 -2 6 -72 -39z"/>
 <path d="M2985 4535 c11 -9 29 -21 40 -26 l20 -10 -20 16 c-11 9 -29 21 -40 26 l-20 10 20 -16z"/>
 <path d="M1128 4327 c-125 -79 -231 -147 -235 -151 -12 -14 7 -2 245 146 189 119 235 150 220 148 -2 -1 -105 -65 -230 -143z"/>
 <path d="M3415 4265 c11 -9 29 -21 40 -26 l20 -10 -20 16 c-11 9 -29 21 -40 26 l-20 10 20 -16z"/>
 <path d="M3495 4215 c11 -9 29 -21 40 -26 l20 -10 -20 16 c-11 9 -29 21 -40 26 l-20 10 20 -16z"/>
 <path d="M892 4034 c-3 -206 23 -171 -263 -362 l-249 -165 0 -565 0 -564 -185 -360 c-102 -199 -184 -363 -182 -365 2 -2 88 161 191 361 l186 364 0 564 1 563 249 165 c155 102 252 173 255 185 3 11 4 85 3 165 l-4 145 -2 -131z"/>
 <path d="M3860 3647 c0 -2 47 -35 105 -73 l105 -69 0 -563 0 -562 60 -120 c33 -66 62 -120 65 -120 3 0 -22 54 -55 120 l-60 120 0 563 0 564 -82 55 c-128 84 -138 91 -138 85z"/>
 <path d="M4356 1820 c47 -94 88 -169 90 -167 5 4 -165 337 -172 337 -3 0 34 -77 82 -170z"/>
 <path d="M908 1237 c48 -24 50 -32 22 -112 -11 -32 -20 -63 -19 -69 0 -9 32 74 54 142 5 17 -2 24 -41 41 -60 27 -71 26 -16 -2z"/>
 <path d="M3550 1245 c-14 -8 -20 -14 -15 -14 6 0 21 6 35 14 14 8 21 14 15 14 -5 0 -21 -6 -35 -14z"/>
 <path d="M3496 1221 c-4 -5 -2 -20 4 -33 8 -19 9 -20 8 -3 -2 11 1 26 5 33 5 6 4 12 -2 12 -5 0 -12 -4 -15 -9z"/>
 <path d="M1105 896 c17 -12 18 -18 7 -53 -18 -60 -13 -65 8 -8 16 45 16 51 2 63 -9 6 -20 12 -26 12 -5 0 -1 -6 9 -14z"/>
 <path d="M3327 893 c-2 -4 2 -24 9 -43 l13 -35 -6 40 c-6 44 -9 50 -16 38z"/>
 <path d="M1061 679 c-18 -55 -31 -102 -29 -104 2 -3 19 41 37 96 18 55 31 102 29 104 -2 3 -19 -41 -37 -96z"/>
 </g>
<g id="layer103" fill="#f6cd47" stroke="none">
 <path d="M1939 4682 c-156 -98 -427 -268 -601 -378 l-318 -199 -2 -165 -3 -165 -252 -169 -253 -169 0 -545 0 -545 -166 -324 c-93 -181 -162 -329 -158 -333 5 -5 216 -97 469 -205 253 -108 461 -198 462 -199 2 -1 -13 -49 -32 -107 -20 -57 -33 -109 -31 -114 2 -6 37 -24 77 -40 41 -15 93 -36 116 -46 l41 -18 -54 -168 c-30 -92 -57 -177 -60 -188 -5 -19 45 -42 526 -249 l530 -229 528 228 c290 124 528 228 530 230 2 2 -22 83 -53 182 -32 98 -58 182 -59 187 0 5 50 30 113 55 63 26 116 51 118 57 2 5 -13 56 -32 114 -19 57 -34 105 -32 106 1 1 209 91 462 199 253 108 464 200 469 205 4 4 -65 151 -158 333 l-166 325 0 544 0 545 -252 169 -253 169 -3 165 -3 165 -137 86 c-834 525 -1065 669 -1071 669 -4 0 -136 -80 -292 -178z m558 -149 c146 -93 388 -244 536 -338 l269 -170 -1 -156 c-1 -121 1 -160 12 -170 7 -8 122 -86 255 -174 l242 -160 0 -525 0 -525 140 -274 c77 -151 137 -278 133 -282 -5 -4 -55 -28 -113 -52 -388 -165 -796 -339 -799 -342 -2 -2 13 -52 33 -111 20 -60 33 -111 28 -114 -4 -4 -58 -26 -119 -51 -100 -38 -112 -46 -107 -64 3 -11 30 -96 60 -189 29 -93 53 -171 51 -172 -1 -2 -137 -61 -302 -132 -165 -71 -364 -157 -442 -191 l-142 -62 -103 44 c-343 148 -783 339 -785 341 -1 1 25 87 58 190 33 104 58 190 57 191 -2 1 -52 22 -113 45 -60 24 -113 46 -117 50 -5 3 8 54 28 114 20 59 35 109 33 111 -5 4 -188 82 -594 255 -170 72 -314 135 -319 140 -4 4 7 37 27 72 19 34 82 158 141 275 l106 211 0 524 1 523 241 160 c133 88 247 166 255 174 11 10 14 48 12 170 l-1 156 108 69 c60 38 240 151 399 251 160 100 351 221 425 268 74 47 136 86 138 86 1 1 122 -74 269 -166z"/>
 <path d="M2156 4349 c-33 -26 -35 -59 -3 -59 12 0 28 9 35 20 22 35 98 22 90 -16 -2 -12 -20 -22 -58 -32 -30 -7 -63 -21 -72 -29 -43 -39 -1 -123 62 -123 16 0 30 -5 30 -11 0 -7 -9 -9 -22 -6 -25 7 -73 -16 -82 -38 -3 -9 -6 -61 -6 -116 0 -99 0 -99 25 -99 25 0 25 1 25 86 0 101 9 124 50 124 41 0 50 -23 50 -124 0 -85 0 -86 25 -86 25 0 25 0 25 95 0 107 -10 139 -52 156 l-29 12 30 18 c26 16 51 47 51 63 0 15 -49 4 -65 -14 -20 -22 -55 -26 -73 -8 -22 22 -12 37 31 49 78 21 96 31 105 57 11 31 0 69 -26 88 -28 22 -115 17 -146 -7z"/>
 <path d="M2110 3695 l0 -125 38 0 39 0 18 85 c10 47 21 85 25 85 4 0 16 -37 26 -82 l19 -83 38 -3 37 -3 0 125 0 126 -25 0 c-25 0 -25 -1 -26 -82 l-1 -83 -21 83 c-19 77 -23 82 -47 82 -24 0 -28 -5 -47 -82 l-21 -83 -1 83 c-1 81 -1 82 -26 82 l-25 0 0 -125z"/>
 <path d="M1589 3655 l41 -45 0 -1133 0 -1134 -41 -52 -41 -51 206 0 c113 0 206 3 206 6 0 3 -16 25 -35 48 l-35 43 0 447 0 446 324 0 c178 0 331 3 340 6 14 6 16 -38 16 -446 l0 -453 -36 -44 c-20 -24 -34 -46 -32 -49 3 -2 96 -3 206 -2 l202 3 -40 45 -39 45 -1 1138 0 1137 41 45 42 45 -207 0 c-113 0 -206 -3 -206 -6 0 -4 16 -24 35 -45 l35 -39 0 -626 c0 -567 -1 -626 -16 -620 -9 3 -162 6 -340 6 l-324 0 0 623 0 623 35 34 c19 19 35 38 35 42 0 4 -93 8 -206 8 l-207 0 42 -45z"/>
 <path d="M2201 3438 l1 -131 -26 -14 c-76 -40 -73 -213 3 -238 24 -7 28 -25 7 -25 -8 0 -24 -12 -35 -26 -18 -23 -21 -41 -21 -125 0 -99 0 -99 25 -99 25 0 25 1 25 86 0 101 9 124 50 124 41 0 50 -23 50 -124 0 -85 0 -86 25 -86 25 0 25 0 25 99 0 84 -3 102 -21 125 -11 14 -27 26 -35 26 -8 0 -14 5 -14 10 0 6 6 10 14 10 15 0 66 55 66 71 0 18 -55 9 -68 -11 -12 -20 -47 -26 -68 -12 -18 11 -34 49 -34 77 0 75 70 114 106 59 11 -16 24 -24 38 -22 39 6 9 70 -42 89 -12 5 -22 12 -21 16 1 5 1 63 0 131 l-1 122 -25 0 -26 0 2 -132z"/>
 <path d="M820 2898 l0 -122 58 56 c31 31 72 64 91 73 46 23 142 31 181 15 45 -19 80 -65 80 -106 0 -66 -28 -99 -207 -243 -109 -87 -176 -168 -194 -235 -18 -65 -6 -160 25 -207 30 -44 100 -94 156 -109 50 -14 127 -12 190 5 74 21 180 21 219 0 l31 -16 0 117 0 117 -50 -52 c-64 -66 -125 -95 -207 -96 -72 0 -107 20 -136 78 -36 72 8 141 169 264 174 132 229 212 229 328 -1 78 -13 110 -67 164 -77 79 -192 103 -324 67 -85 -22 -160 -21 -207 4 l-37 20 0 -122z"/>
 <path d="M2996 3013 c-7 -7 -8 -233 -1 -233 2 0 24 21 47 46 23 25 62 57 87 72 39 23 57 27 124 27 78 0 79 0 114 -39 33 -35 35 -42 31 -88 -6 -58 -33 -90 -173 -202 -185 -149 -229 -214 -230 -336 0 -64 4 -82 27 -121 64 -108 202 -154 348 -114 75 21 180 21 218 1 17 -9 33 -16 37 -16 3 0 5 52 5 115 0 63 -3 115 -6 115 -4 0 -23 -19 -44 -43 -46 -52 -119 -93 -183 -102 -94 -14 -177 42 -177 120 0 68 36 110 211 247 148 117 198 193 199 303 0 99 -41 162 -143 216 -51 27 -71 32 -126 32 -36 0 -94 -8 -127 -17 -84 -22 -161 -21 -201 3 -17 11 -34 17 -37 14z"/>
 <path d="M2130 2635 l0 -125 71 0 c39 0 79 5 90 10 67 37 63 197 -7 229 -14 6 -54 11 -89 11 l-65 0 0 -125z m131 66 c20 -16 24 -29 24 -71 0 -60 -18 -80 -72 -80 l-33 0 0 85 0 85 29 0 c16 0 39 -9 52 -19z"/>
 <path d="M2196 1993 c-6 -20 -24 -287 -30 -458 -17 -426 -19 -441 -56 -460 -37 -19 -47 -50 -24 -76 15 -17 31 -19 144 -19 85 0 130 4 138 12 21 21 13 51 -23 84 -27 24 -35 40 -35 66 0 144 -44 841 -54 857 -11 18 -54 13 -60 -6z"/>
 <path d="M2145 930 c-15 -24 17 -40 80 -40 43 0 66 5 75 15 21 25 1 35 -75 35 -41 0 -77 -5 -80 -10z"/>
 <path d="M2110 820 c-29 -29 -25 -49 21 -121 23 -35 49 -80 58 -99 l16 -35 3 35 c2 19 -1 70 -8 112 -7 43 -9 89 -6 103 6 23 4 25 -29 25 -22 0 -43 -8 -55 -20z"/>
 <path d="M2261 796 c12 -28 20 -71 21 -115 3 -78 9 -79 47 -6 43 81 13 165 -58 165 l-30 0 20 -44z"/>
 </g>

</svg>