<?xml version="1.0" encoding="utf-8"?>
<!-- Generator: Adobe Illustrator 19.0.0, SVG Export Plug-In . SVG Version: 6.00 Build 0)  -->
<svg version="1.1" id="Layer_1" xmlns="http://www.w3.org/2000/svg" xmlns:xlink="http://www.w3.org/1999/xlink" x="0px" y="0px"
	 viewBox="-81 145 448 503" style="enable-background:new -81 145 448 503;" xml:space="preserve">
<style type="text/css">
	.st0{fill:#1E4A84;}
	.st1{fill:#F2CB47;}
</style>
<g id="layer101">
	<path class="st0" d="M113.9,630.8c-15.1-9.5-44.7-28.1-65.9-41.4L9.5,565.3l-0.3-16.9l-0.3-16.9l-25.4-16.9L-42,497.7v-56.5v-56.5
		l-4.9-9.1c-2.6-5-11.4-21.9-19.4-37.6l-14.6-28.6l44.2-18.9c24.3-10.4,46.1-19.6,48.4-20.6l4.2-1.8l-3.6-10.6
		c-1.9-5.8-3.3-11.1-3-11.8c0.2-0.7,3.8-2.5,7.8-4.1c4.1-1.6,9.3-3.7,11.6-4.7l4.1-1.8l-6-18.6c-3.3-10.3-5.8-18.8-5.6-18.9
		c0.2-0.2,7.7-3.5,16.8-7.4c9.1-3.8,36.4-15.6,60.8-26.1L143,145l44.3,19.1c24.3,10.5,51.6,22.2,60.7,26.1
		c9.1,3.9,16.6,7.2,16.8,7.3c0.1,0.1-2.2,7.8-5.2,17.1c-3,9.3-5.6,17.8-5.8,18.8c-0.2,1.6,1.6,2.7,11.2,6.6
		c6.3,2.6,11.6,5.3,11.8,6.1c0.1,0.8-1.3,6-3.2,11.7l-3.5,10.3l3.7,1.6c6.2,2.5,92.7,39.5,92.9,39.7c0.1,0.1-8.6,17.2-19.3,38
		L328,385.3v56.2v56.2l-25.5,16.9L277,531.5l0.1,16.5l0.2,16.5l-66.4,41.7c-36.5,23-67.1,41.8-68,41.8
		C142,648,129,640.2,113.9,630.8z M156.2,626.2c6.8-4.3,26-16.4,42.8-26.9s38.4-24.1,48-30.1l17.5-11l0.3-16.6L265,525l25.5-17
		l25.5-17.1v-55V381l6.4-12.3c16.2-31.2,26.6-51.7,26.6-52.4c0-0.5-3.3-2.3-7.2-4c-41.3-17.5-86.4-36.8-86.7-37
		c-0.3-0.2,4.7-17,6.6-21.9c0.2-0.6-4.5-2.9-10.4-5.2c-5.9-2.4-11.4-4.7-12.2-5.1c-1.2-0.8-0.4-4,4.2-18.4
		c3.2-9.6,5.7-18.1,5.7-18.9c0-0.9-18.7-9.5-53-24.2l-53-22.8l-53,22.8c-34.3,14.7-53,23.3-53,24.2c0,0.8,2.5,9.3,5.7,18.9
		c4.6,14.4,5.4,17.6,4.2,18.4c-0.8,0.4-6.3,2.7-12.2,5.1c-5.9,2.3-10.6,4.6-10.5,5.2c0.2,0.6,1.9,5.7,3.7,11.4
		c1.9,5.6,3.2,10.4,3,10.5c-0.2,0.2-21.4,9.3-47.1,20.2C-42,306.5-63,315.9-63,316.3c0,0.8,9.6,19.7,26.1,51.4l6.9,13.2v55v55
		l25.3,16.9l25.2,16.9l0.5,16.8l0.5,16.7l15.5,9.7c68.6,43,91.4,57.4,97.5,61.4c3.9,2.5,7.6,4.6,8.2,4.6
		C143.4,634,149.5,630.5,156.2,626.2z"/>
	<path class="st0" d="M136.3,613.6c-10.2-6.3-88.9-55.7-95.5-60l-5.8-3.7v-16.3v-16.3L9.5,500.4L-16,483.5v-52.9v-52.9l-14.1-27.4
		c-7.7-15.1-13.9-27.6-13.7-27.8c0.2-0.1,19.7-8.5,43.3-18.5c23.7-10,44.4-18.9,46.2-19.6l3.2-1.4l-3.5-10.2
		c-1.9-5.6-3.4-10.7-3.4-11.3s5.4-3.3,11.9-5.9l11.9-4.7l-2.2-7.2c-1.3-4-4-12.5-6.1-19c-2.1-6.4-3.6-11.9-3.4-12.1
		c0.2-0.2,20.3-8.9,44.7-19.4l44.2-19.1l23.3,10c12.7,5.6,32.7,14.1,44.2,19.1c11.6,5,21.2,9.2,21.4,9.4c0.2,0.2-1.3,5.7-3.4,12.1
		c-2.1,6.5-4.8,15-6.1,19l-2.2,7.2l11.9,4.7c6.5,2.6,11.9,5.3,11.9,5.9s-1.5,5.7-3.4,11.3l-3.5,10.2l3.2,1.4
		c15,6.3,89.3,38,89.5,38.2c0.2,0.1-6,12.6-13.7,27.7L302,377.7v52.9v52.9l-25.5,16.9L251,517.3v16.3v16.3l-5.7,3.7
		c-3.2,2-24.5,15.4-47.3,29.7c-22.8,14.3-44.5,28-48.2,30.3l-6.6,4.3L136.3,613.6z M150.5,582.8c2.9-2.5,3.7-7.7,1.6-10.1
		c-0.6-0.8-3.9-2.2-7.2-3.1c-3.3-1-6.3-2.4-6.6-3.3c-1.3-3.4,6.9-4.7,8.7-1.3c1,2,4.4,2.7,5.3,1.3c0.9-1.6-1.3-5.4-3.8-6.5
		c-2.7-1.2-3.3-2.8-1.1-2.8c0.8,0,2.4-1.2,3.5-2.6c1.8-2.3,2.1-4.1,2.1-12.5c0-9.8,0-9.9-2.4-9.9c-2.3,0-2.4,0.2-2.8,9.5
		c-0.3,10.1-1,11.5-5.5,11.5c-3.3,0-4.3-2.9-4.3-12.4c0-8.5,0-8.6-2.5-8.6H133v10.1c0,9.8,0.1,10.1,3,13l3,3l-3,2.6
		c-5.2,4.3-3.2,11.3,3.7,12.9c6.3,1.3,7.8,2.1,8.1,4.1c0.2,1.6-0.4,2.3-2.7,2.8c-3,0.6-7.1-0.8-7.1-2.5c0-0.6-1.3-1-2.9-1
		c-2.4,0-2.8,0.3-2.4,2C134.3,584.9,145.3,587.2,150.5,582.8z M136.2,521.8l0.3-8.3l1.9,8.3c1.8,7.8,2,8.2,4.6,8.2
		c2.6,0,2.8-0.4,4-6.3c1.8-9.8,3-10.3,3-1.4c0,7.5,0,7.7,2.5,7.7h2.5v-13.1v-13l-3.7,0.3l-3.7,0.3l-1.9,8.3c-1,4.5-2.2,8.2-2.6,8.2
		c-0.4,0-1.6-3.7-2.7-8.2l-1.9-8.3l-3.8-0.3l-3.7-0.3v13V530h2.5C135.9,530,135.9,529.8,136.2,521.8z M113.1,513.4l-4.1-4.7v-62.3
		V384h34h34v62.2v62.2l-4.1,4.8l-4,4.8h21c11.6,0,21.1-0.4,21.1-0.8c0-0.4-1.6-2.3-3.5-4.2l-3.5-3.4V394.7v-115l3.5-4.3
		c1.9-2.3,3.5-4.5,3.5-4.7c0-0.3-9.2-0.6-20.5-0.7c-22.8-0.1-23.2,0-17,6l3.5,3.4v45.3V370h-34h-34v-45.3v-45.3l3.5-3.4
		c6.1-5.9,5.8-6-17-6c-11.3,0-20.5,0.3-20.5,0.6c0,0.3,1.6,2.5,3.5,4.8l3.5,4.3v115v114.9l-3.5,3.4c-1.9,1.9-3.5,3.8-3.5,4.2
		c0,0.4,9.5,0.8,21.1,0.8h21.1L113.1,513.4z M145.5,490.8c0-12.8,0-12.8,2.6-13.8c2.2-0.9,5.9-5.6,5.9-7.4c0-1.6-5.6-0.4-6.8,1.4
		c-1.7,2.8-6.6,2.7-8.6-0.2c-2.3-3.2-2-9,0.5-12.2c2.6-3.3,5.3-3.3,8.3-0.1c2.5,2.7,6.6,3.4,6.6,1.1c0-2-3.9-6.6-6.4-7.5
		c-1.9-0.8-1.9-0.9,1-2.4c3.9-2,4.4-3.8,4.4-15.4c0-9.3,0-9.3-2.5-9.3s-2.5,0.1-2.5,8.6c0,10.1-0.9,12.4-5,12.4c-4.1,0-5-2.3-5-13.4
		V423h4.9c8.2,0,12.2-5.9,10.8-16.3c-0.9-6.6-4.1-8.7-13.3-8.7H133v23.4c0,12.9,0.3,24.2,0.6,25.1c0.4,0.8,2,2.3,3.7,3.1l3,1.6
		l-2.9,1.8c-4,2.7-5.3,5.7-5.4,12.2c0,4.6,0.5,6.2,2.5,8.7c1.4,1.6,3.4,3.2,4.3,3.5c1.5,0.5,1.7,2,1.4,13.7l-0.3,13l2.8-0.3l2.8-0.3
		V490.8z M4.7,447.3c3.5-2.3,15.4-2.3,23.8,0.1c3.2,0.9,7.6,1.6,9.7,1.6c11.4,0,24.6-10,26.7-20.2c2.9-13.8-3.2-23.3-26-41
		c-4.8-3.6-9.9-8.2-11.3-10.1c-5.1-6.7-4.4-14.6,1.8-19c2.5-1.8,4.4-2.2,10.1-2.1c8.6,0,12,1.6,19.8,9.2l5.7,5.6v-12.2V347l-3.2,2
		c-4.1,2.5-14.2,2.7-21.4,0.5c-21.5-6.5-41.1,6.6-39.1,26.1c1,10.2,7,17.9,24.5,31.9c15.5,12.5,18.7,17.3,16,24.3
		c-2.1,5.5-6.7,8.2-14.3,8.2c-7.8,0-14.6-3.2-20.8-9.9l-4.6-4.9l-0.3,11.9c-0.2,6.5-0.2,11.9,0,11.9C1.9,449,3.3,448.2,4.7,447.3z
		 M229.8,445.4c2.7-0.4,7.8,0.1,12.2,1.1c12.2,2.7,16.4,2.9,22.2,1c7.4-2.4,13.3-6.8,16.5-12.3c3.9-6.6,3.9-16.4,0.1-23.7
		c-3.1-5.8-11.7-14.4-24.1-23.9c-13-10-16.7-16.7-13.1-24.1c2.5-5.3,8.7-8,16.1-7.1c7.2,0.8,12.4,3.6,18.4,9.9l4.9,5.1v-12.3v-12.4
		l-2.1,1.9c-2.9,2.6-13.5,3.1-21.5,1c-9.2-2.4-18.8-2.1-25,0.8c-13.7,6.4-18.8,20.3-12.3,34c3.1,6.6,8.9,12.8,22,23.2
		c6.4,5.1,12.6,10.6,13.8,12.3c7,9.9,0.7,20.1-12.4,20.1c-7.9,0-13.3-2.6-20.1-9.5l-5.4-5.6v12.2v12.1l2.5-1.6
		C223.9,446.6,227.2,445.7,229.8,445.4z M145.6,346.9c0.9-1.5,1.9-16.8,3.9-55.4c0.9-17.6,1.8-33,2-34.2c0.3-1.2,1.7-2.8,3.3-3.5
		c2.2-1.1,2.7-2,2.7-4.8v-3.5l-14.3-0.3l-14.2-0.3l-1.2,2.7c-1.2,2.5-1,2.9,2.6,5.9c4.3,3.6,3.8-0.2,5.6,37c1.6,32,3,53.8,3.6,55.8
		C140.2,348.2,144.5,348.7,145.6,346.9z M150.5,238.5c0-1.8-0.8-2-7.4-2.3c-7.9-0.3-10.3,0.7-8.1,3.3c1,1.2,2.9,1.5,8.4,1.3
		C149.7,240.5,150.5,240.3,150.5,238.5z M152.8,227.4c3.1-3.6,2.9-8.7-0.8-15.1c-1.6-2.8-3.3-5.4-3.7-5.6c-0.5-0.3-0.7,3-0.5,7.3
		c0.3,6.3-0.1,8.6-1.7,12.1c-1.2,2.3-2.1,4.5-2.1,4.7C144,232.2,150.9,229.6,152.8,227.4z M139.6,225.3c0-2.7,0.4-8.8,0.8-13.8
		l0.7-9l-3.3,6c-1.9,3.3-4.6,7.8-6.1,9.9c-3.1,4.5-3.3,6.3-1.1,9.4c1.1,1.6,2.5,2.2,5.2,2.2h3.7L139.6,225.3z"/>
	<path class="st0" d="M138,410.5V402h3.5c4.8,0,7.5,2.9,7.5,8s-3.4,9-8,9h-3V410.5z"/>
</g>
<g id="layer102">
	<path class="st1" d="M134.5,629.3c-6.1-4-28.9-18.4-97.5-61.4l-15.5-9.7L21,541.5l-0.5-16.8l-25.2-16.9L-30,490.9v-55v-55
		l-6.9-13.2C-53.4,336-63,317.1-63,316.3c0-0.4,21-9.8,46.8-20.8c25.7-10.9,46.9-20,47.1-20.2c0.2-0.1-1.1-4.9-3-10.5
		c-1.8-5.7-3.5-10.8-3.7-11.4c-0.1-0.6,4.6-2.9,10.5-5.2c5.9-2.4,11.4-4.7,12.2-5.1c1.2-0.8,0.4-4-4.2-18.4
		c-3.2-9.6-5.7-18.1-5.7-18.9c0-0.9,18.7-9.5,53-24.2l53-22.8l53,22.8c34.3,14.7,53,23.3,53,24.2c0,0.8-2.5,9.3-5.7,18.9
		c-4.6,14.4-5.4,17.6-4.2,18.4c0.8,0.4,6.3,2.7,12.2,5.1c5.9,2.3,10.6,4.6,10.4,5.2c-1.9,4.9-6.9,21.7-6.6,21.9
		c0.3,0.2,45.4,19.5,86.7,37c3.9,1.7,7.2,3.5,7.2,4c0,0.7-10.4,21.2-26.6,52.4L316,381v54.9v55L290.5,508L265,525l-0.2,16.6
		l-0.3,16.6l-17.5,11c-9.6,6-31.2,19.6-48,30.1s-36,22.6-42.8,26.9c-6.7,4.3-12.8,7.8-13.5,7.7C142.1,633.9,138.4,631.8,134.5,629.3
		z M198,583.3c22.8-14.3,44.1-27.7,47.3-29.7l5.7-3.7v-16.3v-16.3l25.5-16.9l25.5-16.9v-52.9v-52.9l14.1-27.4
		c7.7-15.1,13.9-27.6,13.7-27.7c-0.2-0.2-74.5-31.9-89.5-38.2l-3.2-1.4l3.5-10.2c1.9-5.6,3.4-10.7,3.4-11.3s-5.4-3.3-11.9-5.9
		l-11.9-4.7l2.2-7.2c1.3-4,4-12.5,6.1-19c2.1-6.4,3.6-11.9,3.4-12.1c-0.2-0.2-9.8-4.4-21.4-9.4c-11.5-5-31.5-13.5-44.2-19.1
		l-23.3-10l-44.2,19.1c-24.4,10.5-44.5,19.2-44.7,19.4c-0.2,0.2,1.3,5.7,3.4,12.1c2.1,6.5,4.8,15,6.1,19l2.2,7.2l-11.9,4.7
		c-6.5,2.6-11.9,5.3-11.9,5.9s1.5,5.7,3.4,11.3l3.5,10.2l-3.2,1.4c-1.8,0.7-22.5,9.6-46.2,19.6c-23.6,10-43.1,18.4-43.3,18.5
		c-0.2,0.2,6,12.7,13.7,27.8l14.1,27.4v52.9v52.9l25.5,16.9L35,517.3v16.3v16.3l5.8,3.7c6.6,4.3,85.3,53.7,95.5,60l6.9,4.3l6.6-4.3
		C153.5,611.3,175.2,597.6,198,583.3z"/>
	<path class="st1" d="M135.8,583c-1.4-1.1-2.8-2.9-3.1-4c-0.4-1.7,0-2,2.4-2c1.6,0,2.9,0.4,2.9,1c0,1.7,4.1,3.1,7.1,2.5
		c2.3-0.5,2.9-1.2,2.7-2.8c-0.3-2-1.8-2.8-8.1-4.1c-6.9-1.6-8.9-8.6-3.7-12.9l3-2.6l-3-3c-2.9-2.9-3-3.2-3-13V532h2.5
		c2.5,0,2.5,0.1,2.5,8.6c0,9.5,1,12.4,4.3,12.4c4.5,0,5.2-1.4,5.5-11.5c0.4-9.3,0.5-9.5,2.8-9.5c2.4,0,2.4,0.1,2.4,9.9
		c0,8.4-0.3,10.2-2.1,12.5c-1.1,1.4-2.7,2.6-3.5,2.6c-2.2,0-1.6,1.6,1.1,2.8c2.5,1.1,4.7,4.9,3.8,6.5c-0.9,1.4-4.3,0.7-5.3-1.3
		c-1.8-3.4-10-2.1-8.7,1.3c0.3,0.9,3.3,2.3,6.6,3.3c3.3,0.9,6.6,2.3,7.2,3.1c2.1,2.4,1.3,7.6-1.6,10.1
		C147,585.7,139.4,585.9,135.8,583z"/>
	<path class="st1" d="M131,516.9v-13l3.7,0.3l3.8,0.3l1.9,8.3c1.1,4.5,2.3,8.2,2.7,8.2c0.4,0,1.6-3.7,2.6-8.2l1.9-8.3l3.7-0.3
		l3.7-0.3v13V530h-2.5c-2.5,0-2.5-0.2-2.5-7.7c0-8.9-1.2-8.4-3,1.4c-1.2,5.9-1.4,6.3-4,6.3c-2.6,0-2.8-0.4-4.6-8.2l-1.9-8.3
		l-0.3,8.3c-0.3,8-0.3,8.2-2.7,8.2H131V516.9z"/>
	<path class="st1" d="M75,517.2c0-0.4,1.6-2.3,3.5-4.2l3.5-3.4V394.7v-115l-3.5-4.3c-1.9-2.3-3.5-4.5-3.5-4.8
		c0-0.3,9.2-0.6,20.5-0.6c22.8,0,23.1,0.1,17,6l-3.5,3.4v45.3V370h34h34v-45.3v-45.3l-3.5-3.4c-6.2-6-5.8-6.1,17-6
		c11.3,0.1,20.5,0.4,20.5,0.7c0,0.2-1.6,2.4-3.5,4.7l-3.5,4.3v115v114.9l3.5,3.4c1.9,1.9,3.5,3.8,3.5,4.2c0,0.4-9.5,0.8-21.1,0.8
		h-21l4-4.8l4.1-4.8v-62.2V384h-34h-34v62.4v62.3l4.1,4.7l4.1,4.6H96.1C84.5,518,75,517.6,75,517.2z"/>
	<path class="st1" d="M140.2,491.1c0.3-11.7,0.1-13.2-1.4-13.7c-0.9-0.3-2.9-1.9-4.3-3.5c-2-2.5-2.5-4.1-2.5-8.7
		c0.1-6.5,1.4-9.5,5.4-12.2l2.9-1.8l-3-1.6c-1.7-0.8-3.3-2.3-3.7-3.1c-0.3-0.9-0.6-12.2-0.6-25.1V398h7.4c9.2,0,12.4,2.1,13.3,8.7
		c1.4,10.4-2.6,16.3-10.8,16.3H138v9.6c0,11.1,0.9,13.4,5,13.4c4.1,0,5-2.3,5-12.4c0-8.5,0-8.6,2.5-8.6s2.5,0,2.5,9.3
		c0,11.6-0.5,13.4-4.4,15.4c-2.9,1.5-2.9,1.6-1,2.4c2.5,0.9,6.4,5.5,6.4,7.5c0,2.3-4.1,1.6-6.6-1.1c-3-3.2-5.7-3.2-8.3,0.1
		c-2.5,3.2-2.8,9-0.5,12.2c2,2.9,6.9,3,8.6,0.2c1.2-1.8,6.8-3,6.8-1.4c0,1.8-3.7,6.5-5.9,7.4c-2.6,1-2.6,1-2.6,13.8v12.7l-2.8,0.3
		l-2.8,0.3L140.2,491.1z M146.5,416.5c1.8-1.8,2.5-3.5,2.5-6.5c0-5.1-2.7-8-7.5-8H138v8.5v8.5h3C142.9,419,145,418.1,146.5,416.5z"
		/>
	<path class="st1" d="M1.8,437.1l0.3-11.9l4.6,4.9c11.9,12.7,30.6,13.6,35.1,1.7c2.7-7-0.5-11.8-16-24.3
		c-17.5-14-23.5-21.7-24.5-31.9c-1.1-10.8,3.8-19.5,13.8-24.5c5.2-2.6,7.4-3.1,13.3-3.1c3.9,0,9.3,0.7,12,1.5
		c7.2,2.2,17.3,2,21.4-0.5l3.2-2v12.2v12.2l-5.7-5.6c-7.8-7.6-11.2-9.2-19.8-9.2c-5.7-0.1-7.6,0.3-10.1,2.1
		c-6.2,4.4-6.9,12.3-1.8,19c1.4,1.9,6.5,6.5,11.3,10.1c22.8,17.7,28.9,27.2,26,41C62.8,439,49.6,449,38.2,449
		c-2.1,0-6.5-0.7-9.7-1.6c-8.4-2.4-20.3-2.4-23.8-0.1c-1.4,0.9-2.8,1.7-2.9,1.7C1.6,449,1.6,443.6,1.8,437.1z"/>
	<path class="st1" d="M220,437.1v-12.2l5.4,5.6c6.8,6.9,12.2,9.5,20.1,9.5c13.1,0,19.4-10.2,12.4-20.1c-1.2-1.7-7.4-7.2-13.8-12.3
		c-13.1-10.4-18.9-16.6-22-23.2c-6.5-13.7-1.4-27.6,12.3-34c6.2-2.9,15.8-3.2,25-0.8c8,2.1,18.6,1.6,21.5-1l2.1-1.9v12.4v12.3
		l-4.9-5.1c-6-6.3-11.2-9.1-18.4-9.9c-7.4-0.9-13.6,1.8-16.1,7.1c-3.6,7.4,0.1,14.1,13.1,24.1c12.4,9.5,21,18.1,24.1,23.9
		c3.8,7.3,3.8,17.1-0.1,23.7c-3.2,5.5-9.1,9.9-16.5,12.3c-5.8,1.9-10,1.7-22.2-1c-8.4-1.9-15.6-1.5-19.5,1.1l-2.5,1.6V437.1z"/>
	<path class="st1" d="M139.6,346.3c-0.6-2-2-23.8-3.6-55.8c-1.8-37.2-1.3-33.4-5.6-37c-3.6-3-3.8-3.4-2.6-5.9l1.2-2.7l14.2,0.3
		l14.3,0.3v3.5c0,2.8-0.5,3.7-2.7,4.8c-1.6,0.7-3,2.3-3.3,3.5c-0.2,1.2-1.1,16.6-2,34.2c-2,38.6-3,53.9-3.9,55.4
		C144.5,348.7,140.2,348.2,139.6,346.3z"/>
	<path class="st1" d="M135,239.5c-2.2-2.6,0.2-3.6,8.1-3.3c6.6,0.3,7.4,0.5,7.4,2.3s-0.8,2-7.1,2.3C137.9,241,136,240.7,135,239.5z"
		/>
	<path class="st1" d="M144,230.8c0-0.2,0.9-2.4,2.1-4.7c1.6-3.5,2-5.8,1.7-12.1c-0.2-4.3,0-7.6,0.5-7.3c2.1,1.3,6.7,11.2,6.7,14.5
		c0,4.6-3.3,8.6-7.7,9.4C145.5,231,144,231.1,144,230.8z"/>
	<path class="st1" d="M130.6,227.8c-2.2-3.1-2-4.9,1.1-9.4c1.5-2.1,4.2-6.6,6.1-9.9l3.3-6l-0.7,9c-0.4,5-0.8,11.1-0.8,13.8l-0.1,4.7
		h-3.7C133.1,230,131.7,229.4,130.6,227.8z"/>
</g>
</svg>
